<?xml version="1.0" encoding="UTF-8"?>
<svg id="Layer_1" data-name="Layer 1" xmlns="http://www.w3.org/2000/svg" viewBox="0 0 1080 1080">
  <defs>
    <style>
      .cls-1 {
        letter-spacing: 0em;
      }

      .cls-2 {
        letter-spacing: -.02em;
      }

      .cls-3 {
        letter-spacing: 0em;
      }

      .cls-4 {
        letter-spacing: 0em;
      }

      .cls-5 {
        font-family: Nexa-Heavy, Nexa;
        font-size: 72px;
        font-weight: 800;
      }

      .cls-6 {
        fill: #af1414;
      }
    </style>
  </defs>
  <g>
    <path d="m417.8,401.31c10.7-5.93,21.82-11.06,33.32-15.42h0l13.37-4.67c28.44-9.08,59.19-13.63,92.26-13.63,69.32,0,129.43,23.63,180.32,70.88.06.06.17.01.17-.08-1.02-28.04-7.84-53.1-20.49-75.15-13.76-23.97-33.29-42.49-58.58-55.59-25.3-13.09-54.82-19.64-88.54-19.64h-195.03c-17.67,0-31.99,14.32-31.99,31.99v146.42c20.19-26.8,45.25-48.51,75.19-65.11Z"/>
    <line x1="515.03" y1="638.2" x2="515.09" y2="638.27"/>
    <path d="m451.79,791.98l-.67-84.86v-282.48c0-.38-.39-.65-.75-.51-11.24,4.3-22.1,9.34-32.58,15.14-14.85,8.23-28.49,17.72-40.94,28.46-3.8,3.28-7.48,6.68-11.05,10.2-7.92,8.03-15.8,17.36-23.2,26.88-17.36,22.35-32.04,45.76-38.13,55.77-1.74,2.87-1.1,6.58,1.5,8.7l1.45,1.18c3,2.45,7.44,1.85,9.7-1.29,11.04-15.29,21.06-25.01,25.47-29v251.81h109.18Z"/>
    <path class="cls-6" d="m736.16,475.86c-7.22-6.7-14.7-13.28-21.9-19.03-4.6-3.58-9.26-7.01-14-10.28-42.48-29.28-90.44-45.63-143.57-41.19-23.57,1.97-33.25,4.14-46.55,7.78-3.35.92-2.69,5.86.79,5.86h45.98c23.08,0,40.96,5.78,53.62,17.32,12.66,11.55,18.98,27.76,18.98,48.62s-6.22,36.97-18.65,48.29c-12.36,11.25-30.19,16.91-53.49,16.98-23.3.07-42.37,18.82-42.37,42.12v31.61c0,9.25,3.06,18.24,8.71,25.57l101.36,131.53c5.32,6.91,13.55,10.96,22.27,10.96h49.08c26.9,0,41.78-31.17,24.88-52.09l-89.78-111.1c33.74-10.66,59.83-28.64,78.26-53.95,14.76-20.28,23.6-43.84,26.53-70.68,5.41,3.83,17.27,12.39,27.75,21.14,2.93,2.44,7.22,2.29,9.94-.39l.34-.33c2.86-2.81,2.96-7.39.22-10.32-7.38-7.89-22.22-23.43-38.39-38.43Z"/>
  </g>
  <text class="cls-5" transform="translate(174.82 880.2)"><tspan x="0" y="0">RELIABLE </tspan><tspan class="cls-2" x="384.33" y="0">C</tspan><tspan class="cls-1" x="433.65" y="0">OLL</tspan><tspan class="cls-3" x="580.82" y="0">E</tspan><tspan class="cls-4" x="628.26" y="0">GE</tspan></text>
</svg>